<svg width="32" height="30" viewBox="0 0 32 30" fill="none" xmlns="http://www.w3.org/2000/svg">
<path fill-rule="evenodd" clip-rule="evenodd" d="M25.6667 11.334L19 16.6673C18.1667 17.334 17.1667 17.6673 16 17.6673C15 17.6673 14 17.334 13 16.6673L6.33333 11.1673C5.83333 10.6673 5.66667 10.0007 6.16667 9.334C6.66667 8.66733 7.33333 8.66733 8 9.16733L14.6667 14.5007C15.5 15.1673 16.6667 15.1673 17.3333 14.5007L24 9.16733C24.5 8.66733 25.3333 8.834 25.8333 9.334C26.3333 10.0007 26.1667 10.834 25.6667 11.334ZM23.3333 0.667328H8.66667C3.83333 0.667328 0.166667 4.66733 0.166667 9.83399V20.1673C0.166667 22.834 1.16667 25.334 2.83333 27.0007C4.33333 28.5007 6.33333 29.334 8.66667 29.334H23.3333C25.5 29.334 27.5 28.5007 29.1667 27.0007C30.8333 25.334 31.8333 22.834 31.8333 20.1673V9.83399C31.8333 4.66733 28.1667 0.667328 23.3333 0.667328Z" fill="#1179FC"/>
</svg>
