<svg width="33" height="29" viewBox="0 0 33 29" fill="none" xmlns="http://www.w3.org/2000/svg">
<path fill-rule="evenodd" clip-rule="evenodd" d="M17.7611 22.4648V22.5608C17.7931 23.2168 17.2811 23.7768 16.6091 23.7928H16.5771C15.9211 23.7928 15.3931 23.2968 15.3771 22.6408C15.3451 21.9848 15.8571 21.3928 16.5291 21.3608C17.1691 21.3288 17.7451 21.8088 17.7611 22.4648ZM16.6091 18.7848H16.5771C15.9211 18.7848 15.3931 18.2888 15.3771 17.6328C15.3451 16.9768 15.8571 16.3848 16.5291 16.3528C17.1691 16.3208 17.7451 16.8008 17.7611 17.4568V17.5368C17.7931 18.2088 17.2811 18.7688 16.6091 18.7848ZM10.6731 22.4648V22.5608C10.7051 23.2168 10.1931 23.7768 9.52113 23.7928H9.47313C8.83313 23.7928 8.30513 23.2968 8.27313 22.6408C8.25713 21.9848 8.76913 21.3928 9.42513 21.3608C10.0651 21.3288 10.6571 21.8088 10.6731 22.4648ZM9.52113 18.7848H9.47313C8.83313 18.7848 8.30513 18.2888 8.27313 17.6328C8.25713 16.9768 8.76913 16.3848 9.42513 16.3528C10.0651 16.3208 10.6411 16.8008 10.6731 17.4568V17.5368C10.7051 18.2088 10.1931 18.7688 9.52113 18.7848ZM10.6091 10.3688C9.95313 10.3688 9.40913 9.84075 9.40913 9.16875C9.40913 8.51275 9.95313 7.96875 10.6091 7.96875H11.9051V6.67275C11.9051 6.01675 12.4331 5.47275 13.1051 5.47275C13.7611 5.47275 14.3051 6.01675 14.3051 6.67275V7.96875H15.5851C16.2411 7.96875 16.7851 8.51275 16.7851 9.16875C16.7851 9.84075 16.2411 10.3688 15.5851 10.3688H14.3051V11.6488C14.3051 12.3208 13.7611 12.8488 13.1051 12.8488C12.4331 12.8488 11.9051 12.3208 11.9051 11.6488V10.3688H10.6091ZM31.7611 26.1928H31.6171C31.352 26.1928 31.1371 25.9779 31.1371 25.7128V10.1448C31.1371 8.48075 29.7931 7.12075 28.1291 7.12075H26.2411C25.976 7.12075 25.7611 7.33565 25.7611 7.60075V25.7128C25.7611 25.9779 25.5462 26.1928 25.2811 26.1928H24.1611C23.896 26.1928 23.6811 25.9779 23.6811 25.7128V4.51275C23.6811 2.44875 22.0011 0.768753 19.9211 0.768753H6.27313C4.20913 0.768753 2.51313 2.44875 2.51313 4.51275V25.8248C2.51313 26.028 2.34836 26.1928 2.14513 26.1928C1.87313 26.1928 1.61713 26.2888 1.40913 26.4488C1.12113 26.6728 0.945129 27.0088 0.945129 27.3928C0.945129 27.9048 1.26513 28.3368 1.69713 28.4968C1.84113 28.5608 1.98513 28.5928 2.14513 28.5928H31.7611C32.4171 28.5928 32.9611 28.0648 32.9611 27.3928C32.9611 26.7368 32.4171 26.1928 31.7611 26.1928Z" fill="#1179FC"/>
</svg>
